<?xml version="1.0" encoding="UTF-8" standalone="no"?>
<svg
   xmlns:dc="http://purl.org/dc/elements/1.1/"
   xmlns:cc="http://creativecommons.org/ns#"
   xmlns:rdf="http://www.w3.org/1999/02/22-rdf-syntax-ns#"
   xmlns:svg="http://www.w3.org/2000/svg"
   xmlns="http://www.w3.org/2000/svg"
   xmlns:sodipodi="http://sodipodi.sourceforge.net/DTD/sodipodi-0.dtd"
   xmlns:inkscape="http://www.inkscape.org/namespaces/inkscape"
   width="256.0px"
   height="256.0px"
   viewBox="0 0 256.0 256.0"
   version="1.1"
   id="SVGRoot"
   sodipodi:docname="moon.svg"
   inkscape:version="1.0.2 (e86c870, 2021-01-15)">
  <defs
     id="defs38">
    <inkscape:path-effect
       effect="powerclip"
       id="path-effect95"
       is_visible="true"
       lpeversion="1"
       inverse="true"
       flatten="false"
       hide_clip="false"
       message="Use fill-rule evenodd on &lt;b&gt;fill and stroke&lt;/b&gt; dialog if no flatten result after convert clip to paths." />
    <inkscape:path-effect
       effect="powerclip"
       id="path-effect83"
       is_visible="true"
       lpeversion="1"
       inverse="true"
       flatten="false"
       hide_clip="false"
       message="Use fill-rule evenodd on &lt;b&gt;fill and stroke&lt;/b&gt; dialog if no flatten result after convert clip to paths." />
    <inkscape:path-effect
       effect="powerclip"
       id="path-effect48"
       is_visible="true"
       lpeversion="1"
       inverse="true"
       flatten="false"
       hide_clip="false"
       message="Use fill-rule evenodd on &lt;b&gt;fill and stroke&lt;/b&gt; dialog if no flatten result after convert clip to paths." />
    <inkscape:path-effect
       effect="powerclip"
       id="path-effect43"
       is_visible="true"
       lpeversion="1"
       inverse="true"
       flatten="false"
       hide_clip="false"
       message="Use fill-rule evenodd on &lt;b&gt;fill and stroke&lt;/b&gt; dialog if no flatten result after convert clip to paths." />
    <clipPath
       clipPathUnits="userSpaceOnUse"
       id="clipPath39">
      <ellipse
         style="display:block;fill:#00ff00;stroke-width:1.17798"
         id="ellipse41"
         clip-path="none"
         inkscape:label="Moonclip"
         ry="115"
         rx="93.66552"
         cy="125.28101"
         cx="72.380531" />
    </clipPath>
    <clipPath
       clipPathUnits="userSpaceOnUse"
       id="clipPath44">
      <circle
         style="display:block;fill:#00ff00"
         id="circle46"
         cx="71.660095"
         cy="123.8104"
         r="105" />
    </clipPath>
    <clipPath
       clipPathUnits="userSpaceOnUse"
       id="clipPath44-1">
      <circle
         style="display:none;fill:#00ff00"
         id="circle46-4"
         cx="71.660095"
         cy="123.8104"
         r="105"
         d="m 176.6601,123.8104 a 105,105 0 0 1 -105.000005,105 105,105 0 0 1 -105,-105 105,105 0 0 1 105,-104.999998 A 105,105 0 0 1 176.6601,123.8104 Z" />
      <path
         id="lpe_path-effect48"
         style="fill:#00ff00"
         class="powerclip"
         d="M 15,15 H 235 V 235 H 15 Z M 176.6601,123.8104 A 105,105 0 0 0 71.660095,18.810402 a 105,105 0 0 0 -105,104.999998 105,105 0 0 0 105,105 105,105 0 0 0 105.000005,-105 z" />
    </clipPath>
    <clipPath
       clipPathUnits="userSpaceOnUse"
       id="clipath_lpe_path-effect83">
      <circle
         style="display:block;fill:#00ff00"
         id="circle85"
         cx="71.660095"
         cy="123.8104"
         r="105" />
    </clipPath>
    <clipPath
       clipPathUnits="userSpaceOnUse"
       id="clipPath91">
      <ellipse
         style="display:none;fill:#ff00ff;stroke-width:0.80213"
         id="ellipse93"
         cy="126.07966"
         cx="84.713943"
         rx="90.622559"
         ry="87.997765"
         d="M 175.3365,126.07966 A 90.622559,87.997765 0 0 1 84.713943,214.07742 90.622559,87.997765 0 0 1 -5.9086151,126.07966 90.622559,87.997765 0 0 1 84.713943,38.081894 90.622559,87.997765 0 0 1 175.3365,126.07966 Z" />
      <path
         id="lpe_path-effect95"
         style="fill:#ff00ff;stroke-width:0.80213"
         class="powerclip"
         d="M 34.091385,33.081894 H 225.3365 V 219.07742 H 34.091385 Z M 175.3365,126.07966 A 90.622559,87.997765 0 0 0 84.713943,38.081894 90.622559,87.997765 0 0 0 -5.9086151,126.07966 90.622559,87.997765 0 0 0 84.713943,214.07742 90.622559,87.997765 0 0 0 175.3365,126.07966 Z" />
    </clipPath>
  </defs>
  <sodipodi:namedview
     id="base"
     pagecolor="#ffffff"
     bordercolor="#666666"
     borderopacity="1.0"
     inkscape:pageopacity="0.0"
     inkscape:pageshadow="2"
     inkscape:zoom="2.7994587"
     inkscape:cx="54.920227"
     inkscape:cy="149.45684"
     inkscape:document-units="px"
     inkscape:current-layer="layer1"
     inkscape:document-rotation="0"
     showgrid="true"
     inkscape:window-width="1662"
     inkscape:window-height="1024"
     inkscape:window-x="1411"
     inkscape:window-y="5"
     inkscape:window-maximized="0"
     showguides="false"
     inkscape:lockguides="false">
    <inkscape:grid
       type="xygrid"
       id="grid47" />
  </sodipodi:namedview>
  <metadata
     id="metadata41">
    <rdf:RDF>
      <cc:Work
         rdf:about="">
        <dc:format>image/svg+xml</dc:format>
        <dc:type
           rdf:resource="http://purl.org/dc/dcmitype/StillImage" />
        <dc:title />
      </cc:Work>
    </rdf:RDF>
  </metadata>
  <g
     inkscape:label="Layer 1"
     inkscape:groupmode="layer"
     id="layer1">
    <path
       style="fill:#6bb7ff;stroke-width:0.80213"
       id="path33"
       clip-path="url(#clipPath91)"
       inkscape:path-effect="#path-effect95"
       sodipodi:type="arc"
       sodipodi:cx="129.71394"
       sodipodi:cy="126.07966"
       sodipodi:rx="90.622559"
       sodipodi:ry="87.997765"
       d="M 220.3365,126.07966 A 90.622559,87.997765 0 0 1 129.71394,214.07742 90.622559,87.997765 0 0 1 39.091385,126.07966 90.622559,87.997765 0 0 1 129.71394,38.081894 90.622559,87.997765 0 0 1 220.3365,126.07966 Z" />
    <path
       sodipodi:type="star"
       style="fill:#ffe900;stroke-width:1.571;fill-opacity:1;stroke-miterlimit:4;stroke-dasharray:none"
       id="path47"
       sodipodi:sides="5"
       sodipodi:cx="83.54509"
       sodipodi:cy="87.393799"
       sodipodi:r1="33.320049"
       sodipodi:r2="16.660025"
       sodipodi:arg1="0.78539816"
       sodipodi:arg2="1.4137167"
       inkscape:flatsided="false"
       inkscape:rounded="0"
       inkscape:randomized="0"
       d="M 107.10592,110.95463 86.151292,103.84871 68.418104,117.08218 68.700899,94.957292 50.635266,82.181395 71.764673,75.613382 78.332686,54.483975 91.108583,72.549608 113.23347,72.266813 100,90.000001 Z"
       inkscape:transform-center-x="1.6107212"
       inkscape:transform-center-y="-1.6107211"
       inkscape:label="star" />
  </g>
</svg>
